<?xml version="1.0" standalone="no"?>
<!DOCTYPE svg PUBLIC "-//W3C//DTD SVG 20010904//EN"
 "http://www.w3.org/TR/2001/REC-SVG-20010904/DTD/svg10.dtd">
<svg version="1.0" xmlns="http://www.w3.org/2000/svg"
 width="137.000000pt" height="140.000000pt" viewBox="0 0 137.000000 140.000000"
 preserveAspectRatio="xMidYMid meet">

<g transform="translate(0.000000,140.000000) scale(0.100000,-0.100000)"
fill="#000000" stroke="none">
<path d="M211 1306 c-37 -13 -85 -62 -76 -77 4 -5 1 -9 -6 -9 -8 0 -7 -5 2
-17 10 -11 10 -14 2 -9 -16 9 -17 -10 -2 -52 6 -18 16 -29 22 -25 5 3 7 2 4
-3 -15 -24 45 -64 96 -64 32 0 38 3 33 16 -5 14 -4 15 8 5 12 -10 21 -7 47 19
26 24 33 40 35 76 4 70 -29 128 -81 141 -5 1 -19 4 -30 7 -11 3 -35 -1 -54 -8z
m127 -60 c1 -15 -1 -17 -7 -7 -5 7 -15 17 -22 22 -10 6 -8 8 7 7 12 -1 21 -10
22 -22z"/>
<path d="M900 936 c-19 -8 -34 -18 -33 -24 2 -6 -4 -9 -12 -6 -8 4 -30 -11
-55 -37 -22 -23 -43 -39 -47 -36 -3 4 -5 29 -4 57 l1 50 -105 0 -105 0 0 -379
0 -379 110 -1 110 -2 0 228 c0 209 2 231 20 266 33 62 49 72 117 75 46 3 70
-1 92 -14 52 -31 56 -48 59 -311 l3 -241 110 -1 110 -1 -3 282 c-2 156 -7 291
-12 300 -4 10 -13 15 -20 11 -7 -5 -7 -2 1 8 10 12 7 23 -13 57 -14 23 -30 40
-35 36 -5 -3 -8 0 -7 6 4 15 -39 48 -72 56 -54 13 -175 13 -210 0z m113 -191
c-3 -9 -8 -14 -10 -11 -3 3 -2 9 2 15 9 16 15 13 8 -4z"/>
<path d="M140 560 l0 -381 110 2 110 1 2 379 3 379 -112 0 -113 0 0 -380z"/>
</g>
</svg>
