<svg width="24" height="29" viewBox="0 0 24 29" fill="none" xmlns="http://www.w3.org/2000/svg">
<path d="M12 0C8.81868 0.00351756 5.76865 1.27512 3.51901 3.53585C1.26937 5.79659 0.00381871 8.86183 0 12.0591C0 15.1646 2.39255 20.0245 7.11151 26.5035C7.67329 27.277 8.40884 27.9063 9.25831 28.3401C10.1078 28.7739 11.0472 29 12 29C12.9528 29 13.8922 28.7739 14.7417 28.3401C15.5912 27.9063 16.3267 27.277 16.8885 26.5035C21.6075 20.0245 24 15.1646 24 12.0591C23.9962 8.86183 22.7306 5.79659 20.481 3.53585C18.2313 1.27512 15.1813 0.00351756 12 0ZM12 16.8659C11.0488 16.8659 10.119 16.5824 9.32819 16.0513C8.53733 15.5202 7.92093 14.7654 7.55694 13.8822C7.19294 12.999 7.09771 12.0272 7.28327 11.0896C7.46883 10.1521 7.92686 9.29084 8.59943 8.61489C9.27199 7.93893 10.1289 7.47861 11.0618 7.29211C11.9947 7.10562 12.9616 7.20133 13.8404 7.56715C14.7191 7.93298 15.4702 8.55248 15.9986 9.34731C16.5271 10.1421 16.8091 11.0766 16.8091 12.0326C16.8091 13.3144 16.3025 14.5438 15.4006 15.4502C14.4987 16.3567 13.2755 16.8659 12 16.8659Z" fill="#009951"/>
</svg>
