<svg width="30" height="29" viewBox="0 0 30 29" fill="none" xmlns="http://www.w3.org/2000/svg">
<path d="M7.29094 28.4795H1.27756V9.45868H7.29094V28.4795ZM4.28829 6.85734C2.36207 6.85734 0.800049 5.322 0.800049 3.42867C0.800049 1.53534 2.36207 0 4.28829 0C6.21452 0 7.77654 1.53534 7.77654 3.42867C7.77654 5.322 6.21452 6.85734 4.28829 6.85734ZM29.8148 28.4795H23.8095V19.2276C23.8095 17.024 23.7691 14.184 20.6855 14.184C17.6019 14.184 17.0758 16.5865 17.0758 19.0685V28.4795H11.0705V9.45868H16.8411V12.06H16.9221C18.0956 10.0871 20.2889 8.90182 22.6117 8.98933C28.706 8.98933 29.8229 12.9271 29.8229 18.0502V28.4874L29.8148 28.4795Z" fill="white"/>
</svg>
