<svg width="29" height="29" viewBox="0 0 29 29" fill="none" xmlns="http://www.w3.org/2000/svg">
<path fill-rule="evenodd" clip-rule="evenodd" d="M24.743 4.13901C22.0269 1.47144 18.416 0.00118664 14.5692 0C6.64238 0 0.190841 6.32956 0.187213 14.1116C0.186003 16.5988 0.848692 19.0267 2.10756 21.1674L0.0662842 28.4795L7.68962 26.5168C9.79015 27.6417 12.1555 28.2338 14.562 28.235H14.568C22.4937 28.235 28.9464 21.9043 28.9501 14.1223C28.9525 10.3523 27.4578 6.8054 24.743 4.13901ZM14.5692 25.851H14.5644C12.4191 25.851 10.3162 25.285 8.48049 24.2158L8.04394 23.9619L3.52 25.126L4.72808 20.7971L4.4439 20.3533C3.24671 18.4855 2.61546 16.327 2.61667 14.1116C2.61909 7.64436 7.98227 2.38278 14.5753 2.38278C17.7678 2.38278 20.7693 3.60503 23.0258 5.82168C25.2823 8.03951 26.5242 10.986 26.523 14.1199C26.5194 20.5895 21.1574 25.851 14.5692 25.851ZM21.126 17.0663C20.7668 16.8895 19.0001 16.0363 18.6699 15.9188C18.341 15.8014 18.1016 15.742 17.8609 16.0945C17.6203 16.4469 16.9334 17.2419 16.723 17.4781C16.5138 17.713 16.3034 17.7427 15.9442 17.5659C15.585 17.3891 14.4266 17.0177 13.054 15.8156C11.9862 14.8805 11.2643 13.7259 11.0551 13.3723C10.8459 13.0187 11.0333 12.8288 11.2123 12.6532C11.3743 12.4954 11.5714 12.2414 11.7516 12.0349C11.933 11.8308 11.9923 11.6837 12.1132 11.4476C12.2329 11.2126 12.1737 11.0061 12.083 10.8293C11.9923 10.6537 11.2739 8.91763 10.9752 8.21158C10.6838 7.52332 10.3875 7.61707 10.1662 7.60639C9.95703 7.59571 9.71759 7.59452 9.47694 7.59452C9.23751 7.59452 8.84812 7.68233 8.51919 8.03595C8.19026 8.38957 7.26153 9.24277 7.26153 10.9776C7.26153 12.7137 8.54942 14.3904 8.7284 14.6254C8.90737 14.8603 11.2618 18.4227 14.8667 19.9499C15.7241 20.313 16.3941 20.5301 16.9153 20.6927C17.7763 20.9609 18.5599 20.9229 19.179 20.8327C19.8695 20.7319 21.305 19.9795 21.6049 19.156C21.9048 18.3325 21.9048 17.6252 21.8141 17.4793C21.7246 17.3309 21.4852 17.2431 21.126 17.0663Z" fill="white"/>
</svg>
