<svg width="25" height="25" viewBox="0 0 25 25" fill="none" xmlns="http://www.w3.org/2000/svg">
<path d="M24.9521 5.77295L16.1833 14.5417C15.2056 15.517 13.881 16.0647 12.5 16.0647C11.119 16.0647 9.7944 15.517 8.81667 14.5417L0.0479167 5.77295C0.0333333 5.93753 0 6.08649 0 6.25003V18.75C0.00165402 20.1309 0.550919 21.4547 1.52731 22.4311C2.50371 23.4074 3.82751 23.9567 5.20833 23.9584H19.7917C21.1725 23.9567 22.4963 23.4074 23.4727 22.4311C24.4491 21.4547 24.9983 20.1309 25 18.75V6.25003C25 6.08649 24.9667 5.93753 24.9521 5.77295Z" fill="#009951"/>
<path d="M14.7104 13.0686L24.225 3.55296C23.7641 2.78871 23.114 2.15613 22.3375 1.71622C21.561 1.27632 20.6842 1.04394 19.7917 1.0415H5.20836C4.31588 1.04394 3.43909 1.27632 2.66255 1.71622C1.88602 2.15613 1.23594 2.78871 0.775024 3.55296L10.2896 13.0686C10.8767 13.6533 11.6715 13.9816 12.5 13.9816C13.3286 13.9816 14.1234 13.6533 14.7104 13.0686Z" fill="#009951"/>
</svg>
