<svg width="25" height="26" viewBox="0 0 25 26" fill="none" xmlns="http://www.w3.org/2000/svg">
<g clip-path="url(#clip0_121_1256)">
<path d="M24.0001 10.9998C23.7348 10.9998 23.4805 10.8945 23.2929 10.7069C23.1054 10.5194 23.0001 10.265 23.0001 9.99981C22.9979 7.87873 22.1544 5.84512 20.6546 4.34529C19.1547 2.84546 17.1211 2.00192 15.0001 1.99981C14.7348 1.99981 14.4805 1.89445 14.2929 1.70691C14.1054 1.51938 14.0001 1.26502 14.0001 0.999807C14.0001 0.73459 14.1054 0.480236 14.2929 0.2927C14.4805 0.105163 14.7348 -0.000193459 15.0001 -0.000193459C17.6513 0.00271814 20.1932 1.05722 22.0679 2.93195C23.9426 4.80669 24.9971 7.34854 25.0001 9.99981C25.0001 10.265 24.8947 10.5194 24.7072 10.7069C24.5196 10.8945 24.2653 10.9998 24.0001 10.9998ZM21.0001 9.99981C21.0001 8.40851 20.3679 6.88238 19.2427 5.75717C18.1175 4.63195 16.5914 3.99981 15.0001 3.99981C14.7348 3.99981 14.4805 4.10516 14.2929 4.2927C14.1054 4.48024 14.0001 4.73459 14.0001 4.99981C14.0001 5.26502 14.1054 5.51938 14.2929 5.70691C14.4805 5.89445 14.7348 5.99981 15.0001 5.99981C16.0609 5.99981 17.0783 6.42123 17.8285 7.17138C18.5786 7.92153 19.0001 8.93894 19.0001 9.99981C19.0001 10.265 19.1054 10.5194 19.2929 10.7069C19.4805 10.8945 19.7348 10.9998 20.0001 10.9998C20.2653 10.9998 20.5196 10.8945 20.7072 10.7069C20.8947 10.5194 21.0001 10.265 21.0001 9.99981ZM23.1831 22.1638L24.0931 21.1148C24.6723 20.5337 24.9975 19.7468 24.9975 18.9263C24.9975 18.1059 24.6723 17.3189 24.0931 16.7378C24.0621 16.7068 21.6561 14.8558 21.6561 14.8558C21.0786 14.3061 20.3116 14.0001 19.5143 14.0012C18.7171 14.0023 17.951 14.3105 17.3751 14.8618L15.4691 16.4678C13.9132 15.8239 12.4999 14.879 11.3103 13.6873C10.1207 12.4957 9.17827 11.0807 8.53705 9.52381L10.1371 7.62381C10.6888 7.04798 10.9973 6.28168 10.9987 5.48421C11 4.68674 10.6939 3.91943 10.1441 3.34181C10.1441 3.34181 8.29105 0.938807 8.26005 0.907807C7.6895 0.333555 6.91593 0.00682856 6.10648 -0.00177868C5.29702 -0.0103859 4.51668 0.299817 3.93405 0.861807L2.78405 1.86181C-4.00995 9.74381 10.6201 24.2608 18.7621 23.9998C19.5842 24.0046 20.399 23.8446 21.1584 23.5292C21.9177 23.2139 22.6061 22.7496 23.1831 22.1638Z" fill="#009951"/>
</g>
<defs>
<clipPath id="clip0_121_1256">
<rect width="24" height="24" fill="white" transform="translate(1)"/>
</clipPath>
</defs>
</svg>
