<?xml version="1.0" standalone="no"?>
<!DOCTYPE svg PUBLIC "-//W3C//DTD SVG 20010904//EN"
 "http://www.w3.org/TR/2001/REC-SVG-20010904/DTD/svg10.dtd">
<svg version="1.0" xmlns="http://www.w3.org/2000/svg"
 width="152.000000pt" height="137.000000pt" viewBox="0 0 152.000000 137.000000"
 preserveAspectRatio="xMidYMid meet">

<g transform="translate(0.000000,137.000000) scale(0.100000,-0.100000)"
fill="#000000" stroke="none">
<path d="M624 1280 c-77 -20 -160 -58 -211 -98 -31 -23 -48 -52 -21 -36 7 4 8
3 4 -5 -6 -9 -11 -9 -21 -1 -14 12 -67 -41 -123 -122 -32 -47 -38 -60 -24 -56
4 2 8 -1 9 -7 1 -5 -5 -9 -12 -7 -8 1 -19 -7 -25 -19 -7 -12 -8 -19 -3 -16 5
4 10 0 10 -8 0 -8 -5 -13 -11 -12 -6 1 -10 -6 -10 -15 1 -10 -2 -18 -6 -18
-14 0 -30 -98 -30 -184 0 -107 15 -179 54 -260 22 -45 29 -71 23 -81 -5 -10
-4 -21 4 -31 9 -12 9 -13 -2 -9 -11 4 -18 -8 -27 -40 -7 -26 -10 -51 -7 -56 4
-5 1 -9 -5 -9 -7 0 -10 -7 -6 -15 3 -8 2 -15 -3 -15 -7 0 -31 -86 -31 -111 0
-5 7 -9 16 -9 11 0 14 5 10 16 -5 13 -3 14 6 6 9 -7 53 0 152 24 77 19 146 32
153 30 8 -3 11 -2 8 3 -3 5 0 13 6 17 7 4 9 3 6 -2 -22 -36 102 -76 253 -82
130 -4 207 10 302 58 62 32 147 90 132 91 -5 0 1 4 14 10 14 5 20 13 16 20 -4
7 -3 9 3 6 12 -8 48 31 83 88 13 22 28 43 32 46 5 3 10 16 13 28 2 13 9 29 16
37 9 11 8 18 -1 30 -11 12 -11 15 0 12 15 -3 34 43 44 102 3 24 0 40 -12 53
-16 18 -16 20 0 31 13 9 16 24 14 52 -2 21 -4 49 -5 62 -1 15 -5 21 -13 16 -7
-5 -8 -3 -4 5 5 7 5 28 1 47 -5 31 -8 34 -22 22 -15 -12 -15 -11 -3 8 11 18 9
29 -21 85 -19 35 -41 63 -48 61 -7 -1 -9 2 -6 9 7 11 -29 52 -38 43 -3 -3 -4
2 -4 12 1 9 -4 19 -12 22 -8 3 -11 0 -7 -6 3 -6 2 -13 -3 -17 -6 -3 -8 3 -6
14 2 10 -2 27 -10 37 -11 16 -15 17 -31 4 -10 -8 -15 -10 -11 -3 4 6 4 13 0
16 -5 2 -2 2 5 1 6 -2 12 -1 12 1 0 8 -84 59 -92 57 -5 -1 -8 2 -8 7 0 8 -64
36 -66 29 0 -2 -8 3 -17 10 -9 8 -21 11 -27 7 -5 -3 -10 -2 -10 3 0 15 -106
32 -194 31 -45 0 -113 -8 -152 -19z m361 -58 c-3 -3 -11 0 -18 7 -9 10 -8 11
6 5 10 -3 15 -9 12 -12z m-51 -37 c15 -7 17 -5 11 6 -5 7 4 4 19 -9 24 -18 32
-20 44 -10 10 9 13 9 9 1 -9 -14 89 -77 118 -76 11 1 14 -1 7 -4 -10 -4 -4
-15 19 -39 18 -18 36 -31 41 -28 5 3 7 0 6 -8 -2 -7 4 -12 13 -12 9 1 16 -5
16 -12 0 -7 -5 -10 -10 -7 -6 3 -2 -5 9 -19 10 -14 23 -23 28 -20 5 3 6 1 3
-5 -3 -5 6 -38 20 -74 14 -35 28 -80 30 -99 2 -19 8 -56 12 -82 5 -27 4 -48 0
-48 -5 0 -9 -15 -9 -33 0 -45 -35 -150 -67 -201 -15 -22 -26 -46 -26 -53 0 -6
-4 -11 -8 -10 -5 1 -21 -12 -36 -29 -15 -17 -49 -47 -75 -67 -26 -19 -44 -38
-40 -43 4 -4 1 -4 -5 0 -12 7 -56 -15 -50 -25 1 -2 -2 -1 -6 2 -5 4 -25 1 -45
-6 -21 -8 -46 -17 -57 -21 -11 -4 -32 -6 -47 -5 -14 1 -29 -2 -32 -7 -3 -6
-16 -8 -28 -4 -14 3 -19 1 -14 -6 4 -6 -6 -5 -21 3 -34 18 -98 20 -87 3 4 -7
3 -8 -5 -4 -6 4 -9 11 -7 15 3 4 -16 13 -42 20 -26 6 -66 21 -90 33 -39 18
-48 19 -107 7 -35 -7 -62 -15 -61 -18 2 -3 -18 -7 -46 -9 -35 -2 -48 1 -43 9
4 6 18 49 31 96 l23 84 -28 55 c-15 30 -30 51 -34 48 -3 -3 -3 4 0 17 5 17 3
21 -9 17 -8 -4 -15 0 -15 8 0 7 4 11 9 8 4 -3 8 -1 8 5 0 5 -4 12 -8 15 -5 3
-9 50 -11 106 -2 103 14 189 46 239 11 18 12 21 2 16 -8 -5 -5 1 5 13 14 17
16 22 5 23 -8 0 -3 5 10 10 15 6 21 14 17 25 -3 8 -2 12 4 9 11 -7 32 29 22
40 -4 5 -2 5 4 2 6 -4 31 12 55 34 24 22 61 49 82 60 26 14 37 25 33 35 -3 8
-2 13 3 9 5 -3 11 -2 14 2 2 5 2 3 1 -4 -2 -9 5 -9 27 -1 16 5 26 14 23 19 -3
5 1 7 8 4 7 -2 29 0 48 5 42 11 257 7 284 -5z m-467 -10 c0 -8 -4 -12 -9 -9
-5 3 -6 10 -3 15 9 13 12 11 12 -6z m939 -427 c4 -7 4 -10 -1 -6 -4 4 -15 2
-24 -5 -14 -11 -14 -10 -2 6 16 20 18 21 27 5z m-1136 -514 c0 -8 -19 -13 -24
-6 -3 5 1 9 9 9 8 0 15 -2 15 -3z m910 -28 c0 -2 -8 -10 -17 -17 -16 -13 -17
-12 -4 4 13 16 21 21 21 13z m-290 -100 c0 -2 -7 -7 -16 -10 -8 -3 -12 -2 -9
4 6 10 25 14 25 6z"/>
<path d="M506 930 c-23 -28 -46 -86 -46 -117 0 -36 38 -116 85 -178 65 -85
142 -158 157 -149 6 4 8 3 4 -4 -12 -20 189 -112 214 -97 5 3 10 1 10 -6 0
-15 74 -4 110 18 58 34 82 124 38 138 -13 4 -26 7 -30 6 -5 -1 -8 3 -8 8 0 8
-19 18 -50 26 -3 1 -13 5 -22 9 -22 10 -41 -2 -34 -20 3 -9 -3 -18 -17 -24
-12 -6 -30 -15 -39 -22 -14 -10 -24 -9 -51 4 -26 13 -37 14 -46 5 -9 -9 -11
-8 -6 3 3 10 -5 21 -22 32 -31 18 -122 105 -123 116 0 4 -6 15 -14 24 -13 14
-12 19 6 35 11 10 26 30 34 45 13 24 11 32 -18 95 -17 37 -31 71 -30 76 1 4
-16 7 -37 7 -31 0 -44 -6 -65 -30z m247 -390 c3 -11 1 -18 -4 -14 -5 3 -9 12
-9 20 0 20 7 17 13 -6z"/>
<path d="M1400 651 c0 -6 5 -13 10 -16 6 -3 10 1 10 9 0 9 -4 16 -10 16 -5 0
-10 -4 -10 -9z"/>
</g>
</svg>
