<svg width="26" height="26" viewBox="0 0 26 26" fill="none" xmlns="http://www.w3.org/2000/svg">
<path d="M25.9502 6.00385L16.8307 15.1233C15.8138 16.1376 14.4362 16.7072 13 16.7072C11.5638 16.7072 10.1862 16.1376 9.16933 15.1233L0.0498333 6.00385C0.0346667 6.17501 0 6.32993 0 6.50001V19.5C0.00172018 20.9361 0.572955 22.3128 1.5884 23.3283C2.60385 24.3437 3.98061 24.915 5.41667 24.9167H20.5833C22.0194 24.915 23.3961 24.3437 24.4116 23.3283C25.427 22.3128 25.9983 20.9361 26 19.5V6.50001C26 6.32993 25.9653 6.17501 25.9502 6.00385Z" fill="white"/>
<path d="M15.2989 13.5915L25.194 3.69523C24.7147 2.90041 24.0386 2.24252 23.231 1.78502C22.4234 1.32752 21.5115 1.08585 20.5834 1.08331H5.4167C4.48852 1.08585 3.57666 1.32752 2.76906 1.78502C1.96146 2.24252 1.28538 2.90041 0.80603 3.69523L10.7012 13.5915C11.3117 14.1996 12.1383 14.541 13 14.541C13.8617 14.541 14.6883 14.1996 15.2989 13.5915Z" fill="white"/>
</svg>
