<svg width="24" height="28" viewBox="0 0 24 28" fill="none" xmlns="http://www.w3.org/2000/svg">
<path d="M12 0.0490112C8.9129 0.0524075 5.95323 1.28017 3.77023 3.46295C1.58723 5.64572 0.359174 8.60528 0.355469 11.6923C0.355469 14.6907 2.67714 19.383 7.2563 25.6387C7.80144 26.3855 8.5152 26.9931 9.3395 27.4119C10.1638 27.8307 11.0754 28.0491 12 28.0491C12.9246 28.0491 13.8361 27.8307 14.6604 27.4119C15.4847 26.9931 16.1985 26.3855 16.7436 25.6387C21.3228 19.383 23.6445 14.6907 23.6445 11.6923C23.6408 8.60528 22.4127 5.64572 20.2297 3.46295C18.0467 1.28017 15.087 0.0524075 12 0.0490112ZM12 16.3333C11.077 16.3333 10.1747 16.0597 9.40731 15.5469C8.63988 15.0341 8.04174 14.3053 7.68853 13.4525C7.33532 12.5998 7.24291 11.6615 7.42297 10.7563C7.60303 9.85101 8.04749 9.01949 8.70014 8.36685C9.35278 7.7142 10.1843 7.26975 11.0895 7.08968C11.9948 6.90962 12.9331 7.00203 13.7858 7.35524C14.6385 7.70845 15.3674 8.30659 15.8802 9.07402C16.3929 9.84145 16.6666 10.7437 16.6666 11.6667C16.6666 12.9044 16.175 14.0913 15.2998 14.9665C14.4246 15.8417 13.2376 16.3333 12 16.3333Z" fill="white"/>
</svg>
