<svg width="93" height="93" viewBox="0 0 93 93" fill="none" xmlns="http://www.w3.org/2000/svg">
<g filter="url(#filter0_d_121_1231)">
<rect x="4.79712" y="0.797119" width="84.2029" height="84.2029" rx="42.1014" fill="#009951"/>
<g clip-path="url(#clip0_121_1231)">
<path fill-rule="evenodd" clip-rule="evenodd" d="M65.5821 25.3307C60.7856 20.5299 54.4087 17.8839 47.6154 17.8818C33.6167 17.8818 22.2234 29.273 22.217 43.2781C22.2148 47.7543 23.3851 52.1237 25.6083 55.9763L22.0034 69.1357L35.4661 65.6035C39.1756 67.628 43.3528 68.6936 47.6026 68.6958H47.6133C61.6099 68.6958 73.0053 57.3025 73.0118 43.2973C73.016 36.5126 70.3764 30.1293 65.5821 25.3307ZM47.6154 64.4054H47.6069C43.8184 64.4054 40.1046 63.3867 36.8628 61.4626L36.0918 61.0056L28.1026 63.1006L30.2361 55.31L29.7342 54.5112C27.62 51.1498 26.5052 47.2652 26.5074 43.2781C26.5116 31.6392 35.9829 22.17 47.6261 22.17C53.264 22.17 58.5646 24.3697 62.5495 28.3589C66.5345 32.3503 68.7278 37.653 68.7256 43.293C68.7192 54.9362 59.2501 64.4054 47.6154 64.4054ZM59.1945 48.5957C58.5603 48.2775 55.4402 46.742 54.8572 46.5306C54.2763 46.3192 53.8535 46.2124 53.4285 46.8466C53.0035 47.4809 51.7905 48.9118 51.4189 49.3367C51.0494 49.7596 50.6779 49.813 50.0436 49.4948C49.4093 49.1766 47.3634 48.5081 44.9396 46.3448C43.0538 44.662 41.7789 42.584 41.4094 41.9476C41.04 41.3112 41.371 40.9695 41.6871 40.6535C41.9732 40.3694 42.3213 39.9124 42.6395 39.5408C42.9599 39.1735 43.0645 38.9087 43.2781 38.4837C43.4895 38.0609 43.3848 37.6893 43.2247 37.3711C43.0645 37.055 41.796 33.9307 41.2685 32.66C40.7538 31.4214 40.2306 31.5901 39.8398 31.5708C39.4703 31.5516 39.0475 31.5495 38.6225 31.5495C38.1997 31.5495 37.512 31.7075 36.9311 32.3439C36.3502 32.9803 34.7101 34.5158 34.7101 37.638C34.7101 40.7624 36.9845 43.78 37.3006 44.2028C37.6166 44.6256 41.7746 51.0367 48.1408 53.7852C49.6549 54.4386 50.838 54.8294 51.7585 55.122C53.279 55.6047 54.6628 55.5363 55.7563 55.374C56.9757 55.1925 59.5106 53.8385 60.0402 52.3564C60.5699 50.8744 60.5699 49.6015 60.4097 49.3389C60.2517 49.0719 59.8288 48.9139 59.1945 48.5957Z" fill="#083D29"/>
</g>
</g>
<defs>
<filter id="filter0_d_121_1231" x="0.797119" y="0.797119" width="92.2029" height="92.2029" filterUnits="userSpaceOnUse" color-interpolation-filters="sRGB">
<feFlood flood-opacity="0" result="BackgroundImageFix"/>
<feColorMatrix in="SourceAlpha" type="matrix" values="0 0 0 0 0 0 0 0 0 0 0 0 0 0 0 0 0 0 127 0" result="hardAlpha"/>
<feOffset dy="4"/>
<feGaussianBlur stdDeviation="2"/>
<feComposite in2="hardAlpha" operator="out"/>
<feColorMatrix type="matrix" values="0 0 0 0 0 0 0 0 0 0 0 0 0 0 0 0 0 0 0.25 0"/>
<feBlend mode="normal" in2="BackgroundImageFix" result="effect1_dropShadow_121_1231"/>
<feBlend mode="normal" in="SourceGraphic" in2="effect1_dropShadow_121_1231" result="shape"/>
</filter>
<clipPath id="clip0_121_1231">
<rect width="51.2539" height="51.2539" fill="white" transform="translate(21.8817 17.8818)"/>
</clipPath>
</defs>
</svg>
